<?xml version="1.0" encoding="UTF-8"?>
<svg version="1.1" xmlns="http://www.w3.org/2000/svg" width="1024" height="1536">
<path d="M0 0 C337.92 0 675.84 0 1024 0 C1024 506.88 1024 1013.76 1024 1536 C686.08 1536 348.16 1536 0 1536 C0 1029.12 0 522.24 0 0 Z " fill="#020101" transform="translate(0,0)"/>
<path d="M0 0 C1.71039207 -0.00810448 1.71039207 -0.00810448 3.45533752 -0.01637268 C7.23114853 -0.02889678 11.00620238 -0.01234033 14.78198242 0.00561523 C17.40508565 0.0054603 20.02818912 0.00397227 22.65129089 0.00120544 C28.15335948 -0.00149648 33.65520991 0.01197316 39.15722656 0.03515625 C45.50680063 0.06172643 51.85600907 0.06352574 58.20561963 0.05176789 C64.32349585 0.04096203 70.4412194 0.04730322 76.55908775 0.06132317 C79.15738224 0.06583621 81.75568747 0.06617576 84.35398293 0.06225777 C87.99011769 0.05934235 91.62565902 0.07587119 95.26171875 0.09765625 C96.33365479 0.0931546 97.40559082 0.08865295 98.51000977 0.08401489 C105.25331917 0.15102521 110.29310916 0.80765682 115.79589844 5.00512695 C120.17351225 9.61350843 124.01398767 14.49701872 127.76245117 19.62670898 C129.07666571 21.40340905 130.39180126 23.17942814 131.70776367 24.95483398 C132.7195166 26.32285156 132.7195166 26.32285156 133.75170898 27.71850586 C137.16869083 32.30559877 140.65682197 36.83785289 144.13745117 41.37670898 C148.87965689 47.57697106 153.54259588 53.8128648 158.03588867 60.19555664 C161.63606677 65.2903451 165.38188409 70.27076049 169.13745117 75.25170898 C174.50207373 82.37046089 179.78029927 89.54239015 184.98046875 96.78198242 C188.88847274 102.21868631 192.84487512 107.61757798 196.82495117 113.00170898 C201.97590429 119.97211397 207.07524228 126.97737785 212.13916016 134.01123047 C215.52816727 138.71591499 218.94673914 143.39724608 222.38745117 148.06420898 C228.32381009 156.12242104 234.07813379 164.30773027 239.82495117 172.50170898 C240.13666844 150.88931169 238.64100089 129.32244206 237.09545898 107.77758789 C236.82126426 103.95024532 236.55322896 100.12250462 236.28588867 96.29467773 C236.11176572 93.83241293 235.93729956 91.37017238 235.76245117 88.90795898 C235.64365601 87.21262024 235.64365601 87.21262024 235.52246094 85.48303223 C235.20055528 81.02583804 234.87071058 76.58527761 234.29541016 72.15283203 C233.84475255 68.65538286 233.56636473 65.1969922 233.36010742 61.67749023 C233.28324707 60.41138916 233.20638672 59.14528809 233.12719727 57.84082031 C233.08810242 57.18320709 233.04900757 56.52559387 233.00872803 55.84805298 C232.41064159 45.81798999 231.73250592 35.81079273 230.69995117 25.81420898 C229.23428937 11.47976003 229.23428937 11.47976003 229.82495117 4.50170898 C231.3770892 2.94957095 232.85085678 3.36624137 235.01165771 3.35453796 C235.91453522 3.34738266 236.81741272 3.34022736 237.74765015 3.33285522 C239.24529404 3.32882187 239.24529404 3.32882187 240.77319336 3.32470703 C242.34144363 3.31485023 242.34144363 3.31485023 243.94137573 3.30479431 C247.41819318 3.28500478 250.89496731 3.27338578 254.37182617 3.26342773 C256.14836452 3.25731444 256.14836452 3.25731444 257.96079254 3.25107765 C264.22996346 3.23019217 270.49911232 3.21590154 276.76831055 3.20654297 C283.25294586 3.19547704 289.73723816 3.16108168 296.22175217 3.12137127 C301.19912363 3.09525612 306.17641279 3.08685562 311.15384674 3.08326149 C313.5444902 3.07838186 315.93512966 3.06672904 318.32570648 3.0482235 C321.67045932 3.0239426 325.01431734 3.02477732 328.35913086 3.03173828 C329.3494632 3.01892822 330.33979553 3.00611816 331.36013794 2.99291992 C335.61040303 3.02520439 338.15872505 3.12052839 341.90223694 5.26237488 C343.91338691 7.60470773 344.58657639 8.7894749 345.05419922 11.80102539 C345.19232025 12.68526184 345.33044128 13.56949829 345.4727478 14.48052979 C346.18004769 20.54770543 346.69888396 26.62233458 347.15698242 32.71264648 C347.27447883 34.2156251 347.39248354 35.71856405 347.51095581 37.22146606 C347.82796797 41.26398418 348.13725539 45.30705781 348.44472885 49.35031128 C348.70409239 52.75030902 348.96754795 56.14998492 349.23095798 59.54967117 C349.97666281 69.176337 350.71066351 78.80386784 351.44030762 88.4317627 C351.74788974 92.48962846 352.05733764 96.54734847 352.36770058 100.6050024 C354.80124132 132.42172503 357.13222083 164.23734339 358.83740234 196.10327148 C359.57475235 209.81989533 360.53671889 223.51089207 361.57681274 237.20773315 C364.41178885 274.84133495 366.65155973 312.51648448 368.8684845 350.19044495 C369.07399829 353.67306162 369.28121935 357.15557294 369.4888916 360.63806152 C369.82035217 366.20218418 370.14673421 371.76658364 370.46937561 377.33122444 C370.58987104 379.39804167 370.7118792 381.46477138 370.83555603 383.53140068 C371.39054011 392.82721035 371.92664559 402.12802457 372.08569336 411.44042969 C372.10992371 412.64552689 372.13415405 413.85062408 372.15911865 415.09223938 C371.76074273 419.15681983 370.59893209 421.84462934 368.82495117 425.50170898 C356.94784005 425.91164049 345.0700821 426.19558673 333.18835449 426.43157959 C329.5914438 426.50657778 325.99486148 426.59216722 322.39819336 426.67797852 C315.84669076 426.82905901 309.29563759 426.93215256 302.74285889 427.00854492 C300.13539957 427.04559066 297.52810233 427.0968132 294.92120361 427.16235352 C291.22187031 427.25243019 287.52521187 427.2910431 283.82495117 427.31811523 C282.16156204 427.37528465 282.16156204 427.37528465 280.46456909 427.43360901 C273.00696804 427.41501557 273.00696804 427.41501557 269.61418152 424.79351807 C267.81489596 422.77611038 266.29545245 420.76716846 264.82495117 418.50170898 C264.40711868 417.89042648 263.98928619 417.27914398 263.55879211 416.64933777 C262.36460202 414.83637383 261.24494244 412.99373239 260.13745117 411.12670898 C256.67548634 405.4131067 253.08112774 399.80996056 249.35229492 394.26733398 C244.88403191 387.59471504 240.44217627 380.90560071 236.02807617 374.19702148 C235.45768112 373.33029816 234.88728607 372.46357483 234.29960632 371.57058716 C232.55764179 368.92289903 230.81622766 366.27484966 229.07495117 363.62670898 C222.01996581 352.89923883 214.9637083 342.17368889 207.82495117 331.50170898 C206.68402852 329.79096996 205.54339781 328.08003619 204.40307617 326.36889648 C202.68935508 323.79818799 200.97548934 321.22757648 199.26123047 318.65722656 C196.38444303 314.34337672 193.5094214 310.02839577 190.64135742 305.70874023 C185.0965129 297.36244986 179.48941097 289.06482546 173.79760742 280.81811523 C169.75401491 274.95593938 165.74982581 269.06687252 161.74169922 263.18041992 C158.82284056 258.89503613 155.90131445 254.61155797 152.96923828 250.33520508 C145.26513921 239.09643318 137.61765347 227.82058549 130.00341797 216.52075195 C128.1289718 213.73912583 126.25340082 210.95826069 124.37768555 208.17749023 C117.49641856 197.97232766 110.63807404 187.75250117 103.82495117 177.50170898 C103.80853577 178.08855972 103.79212036 178.67541046 103.77520752 179.28004456 C103.75327332 180.06419235 103.73133911 180.84834015 103.70874023 181.65625 C103.68654419 182.47425079 103.66434814 183.29225159 103.64147949 184.13504028 C103.59275418 185.82261254 103.53210649 187.509852 103.46459961 189.19677734 C103.39304271 194.56181367 104.30458128 198.30709618 106.67944336 203.09619141 C108.91278485 207.78611334 110.41397206 212.7741941 112.07495117 217.68920898 C115.00575736 226.25688368 117.97654135 234.80557969 121.07495117 243.31420898 C121.37949219 244.15298584 121.6840332 244.9917627 121.99780273 245.85595703 C122.29654297 246.67362549 122.5952832 247.49129395 122.90307617 248.33374023 C123.32698639 249.51111 123.32698639 249.51111 123.75946045 250.71226501 C124.47431065 252.58373564 125.25033231 254.43288044 126.08276367 256.25509644 C130.0958067 265.40920155 130.54533729 273.64723751 130.49682617 283.42749023 C130.50716173 285.04892519 130.51977334 286.67034702 130.53450012 288.29174805 C130.56113576 291.70547832 130.57309621 295.11878994 130.57254028 298.53262329 C130.57171363 303.86067389 130.60324372 309.18821421 130.64111328 314.51611328 C130.67741816 319.77979754 130.71260296 325.04344637 130.7361908 330.3072052 C130.7887355 341.72427747 130.95880156 353.13042059 131.31665039 364.54248047 C131.73179578 377.86292124 131.97867328 391.18534154 132.05612183 404.51205444 C132.06853446 406.35928411 132.08593506 408.20648796 132.1086731 410.05361938 C132.13825262 412.58466529 132.14840932 415.11504225 132.15307617 417.64624023 C132.16537766 418.40030151 132.17767914 419.15436279 132.19035339 419.93127441 C132.16870921 425.00818074 132.16870921 425.00818074 130.64316845 427.19837666 C128.13369999 428.99721083 126.4509407 428.85613919 123.37702942 428.82450867 C121.67959846 428.81807343 121.67959846 428.81807343 119.94787598 428.81150818 C118.70566284 428.79137161 117.46344971 428.77123505 116.18359375 428.75048828 C114.87617722 428.74117279 113.56876068 428.7318573 112.22172546 428.72225952 C108.63501447 428.69636125 105.04874728 428.65181095 101.46227098 428.60396171 C97.71474553 428.55711912 93.96708585 428.52735958 90.21940613 428.49580383 C83.12198838 428.43343891 76.02482608 428.3556653 68.92762631 428.27238351 C60.84801263 428.17832183 52.76826442 428.10139501 44.68845904 428.02592218 C28.06706499 427.87027834 11.4459732 427.6930685 -5.17504883 427.50170898 C-6.47206893 424.3706434 -7.42904604 421.90366661 -7.44067383 418.50170898 C-7.44462158 417.71481689 -7.44856934 416.9279248 -7.45263672 416.1171875 C-7.44353271 415.25407959 -7.43442871 414.39097168 -7.42504883 413.50170898 C-7.42045654 412.58123779 -7.41586426 411.6607666 -7.41113281 410.71240234 C-7.29188285 400.81939356 -6.76680789 390.94210331 -6.23754883 381.06420898 C-6.19416382 380.24766846 -6.15077881 379.43112793 -6.1060791 378.58984375 C-5.97853926 376.2281619 -5.84560402 373.86685847 -5.71020508 371.50561523 C-5.67159866 370.80215469 -5.63299225 370.09869415 -5.59321594 369.37391663 C-5.41601341 366.40194901 -5.17383872 363.49437043 -4.6892395 360.55558777 C-3.88177736 355.00371237 -3.82797799 349.3975846 -3.65087891 343.79760742 C-3.60865141 342.53060753 -3.56642391 341.26360764 -3.52291679 339.95821381 C-3.38496159 335.75939652 -3.25790813 331.56027954 -3.13208008 327.36108398 C-3.09900328 326.2732482 -3.09900328 326.2732482 -3.06525826 325.16343594 C-2.08478148 292.85111986 -1.8314455 260.55464687 -1.86136925 228.22923517 C-1.86485211 223.17124215 -1.85517656 218.11338524 -1.83886719 213.05541992 C-1.65323024 154.05807048 -4.69610813 95.58223396 -11.30004883 36.93920898 C-11.38036346 36.22213776 -11.4606781 35.50506653 -11.54342651 34.76626587 C-12.3802124 27.36328225 -13.33840568 20.01678136 -14.7668457 12.70092773 C-16.03290191 5.87997417 -16.03290191 5.87997417 -13.85005188 2.37290955 C-9.54638031 -0.63756652 -5.12666782 -0.0459778 0 0 Z " fill="#EB0C12" transform="translate(511.175048828125,440.498291015625)"/>
<path d="M0 0 C5.7618248 2.61197765 7.86235434 7.70478227 11 13 C11.72123047 14.15822266 11.72123047 14.15822266 12.45703125 15.33984375 C18.66131617 25.70531071 19.47002483 36.06775897 19.79638672 47.88110352 C19.93363217 52.76367635 20.08800833 57.6453221 20.25097656 62.52709961 C21.25988043 94.45539297 21.15325397 126.39277606 21.12856877 158.33300883 C21.12420323 164.65222852 21.12734915 170.97142844 21.1321975 177.29064691 C21.13674463 183.46990493 21.13737351 189.64915445 21.13475883 195.82841361 C21.13321411 199.48343666 21.1329535 203.13844632 21.13629532 206.79346848 C21.13973954 210.8367761 21.13495829 214.88003458 21.12939453 218.92333984 C21.13141876 220.10559647 21.13344299 221.28785309 21.13552856 222.50593567 C21.12074793 228.31728554 20.91932993 234.00923613 20.23136711 239.78203773 C19.88377467 243.11417476 19.83756981 246.44330363 19.76000977 249.79077148 C19.41141622 264.31784979 18.39609547 278.79754542 17.33047485 293.28695679 C17.15191821 295.71938189 16.97627607 298.15202271 16.80355835 300.58486938 C16.55643295 304.0455973 16.29759136 307.50524701 16.03515625 310.96484375 C15.96114594 312.01793732 15.88713562 313.07103088 15.81088257 314.15603638 C15.69578842 315.61781815 15.69578842 315.61781815 15.57836914 317.10913086 C15.48296593 318.38595985 15.48296593 318.38595985 15.38563538 319.68858337 C14.97969987 322.12167467 14.21396212 323.86601959 13 326 C12.12859375 325.03320312 11.2571875 324.06640625 10.359375 323.0703125 C-5.64396754 305.48882483 -22.68466129 292.21561416 -46 286 C-46.87011719 285.75636719 -47.74023438 285.51273438 -48.63671875 285.26171875 C-85.81307332 276.68256 -123.83945596 295.40613644 -154.375 314.4375 C-170.19094848 324.47192845 -185.41674276 335.33495293 -200.26757812 346.74169922 C-250.7290926 385.48406275 -250.7290926 385.48406275 -273 383 C-280.6761487 380.97929198 -285.5726803 375.1225906 -289.4765625 368.4921875 C-302.31871771 342.73277676 -293.69562747 306.41732748 -288.95703125 279.57421875 C-288.20746014 275.30815923 -287.57366105 271.0415293 -287.0090332 266.74755859 C-283.47750101 240.00230266 -277.64617287 213.58678637 -271.47958374 187.34506226 C-270.32705406 182.43195126 -269.2092292 177.51196438 -268.11328125 172.5859375 C-267.96215881 171.90713028 -267.81103638 171.22832306 -267.65533447 170.52894592 C-267.50594421 169.85786301 -267.35655396 169.18678009 -267.20263672 168.49536133 C-264.90788222 158.18743935 -262.54676927 147.91591302 -259.77270508 137.72485352 C-257.95699622 131.00845002 -256.4237727 124.23711234 -254.96240234 117.43530273 C-253.53922191 110.95352181 -251.80241962 104.5825876 -250.00709534 98.19657898 C-248.4410825 92.61807384 -246.93217273 87.02712583 -245.46484375 81.421875 C-245.25642853 80.62616592 -245.04801331 79.83045685 -244.83328247 79.01063538 C-243.98706196 75.77509718 -243.14316078 72.53895661 -242.29956055 69.30273438 C-240.88079967 63.86460382 -239.44883591 58.43019606 -238 53 C-237.81657043 52.30801514 -237.63314087 51.61603027 -237.44415283 50.90307617 C-236.93108272 48.97992275 -236.40530641 47.06017258 -235.87890625 45.140625 C-235.58701416 44.06844727 -235.29512207 42.99626953 -234.99438477 41.89160156 C-233.34958455 37.10863724 -231.14135478 33.81591092 -227.25 30.625 C-224.59890091 28.39653989 -222.12730061 26.14214182 -219.75 23.625 C-214.46261791 18.2521406 -207.5042247 11.58648717 -200 10 C-199.52691406 11.12277344 -199.05382812 12.24554687 -198.56640625 13.40234375 C-189.86231425 33.38670682 -173.06473878 45.78117311 -153.00341797 53.79785156 C-148.72135372 55.37901759 -144.38181548 56.71980213 -140 58 C-138.89785156 58.35191406 -138.89785156 58.35191406 -137.7734375 58.7109375 C-131.35636451 60.59509936 -124.64384561 60.77227949 -118 61 C-117.02466309 61.03399902 -116.04932617 61.06799805 -115.04443359 61.10302734 C-79.41874482 62.15697849 -45.44338794 53.36835091 -18.875 28.375 C-10.88406615 20.12629409 -4.97419277 10.28908368 0 0 Z " fill="#FDFDFD" transform="translate(471,521)"/>
<path d="M0 0 C0.65693848 0.33193359 1.31387695 0.66386719 1.99072266 1.00585938 C20.58263489 10.56169218 33.01205661 25.08284286 39.9609375 44.71484375 C45.07057505 61.80165923 42.21645339 80.56026218 34.484375 96.40625 C31.72052996 101.23570555 28.42656639 105.62551053 25 110 C24.5565625 110.58652344 24.113125 111.17304687 23.65625 111.77734375 C17.75132926 119.29813808 10.28645248 124.43026518 2 129 C1.1646875 129.49371094 0.329375 129.98742187 -0.53125 130.49609375 C-23.80166027 143.36837529 -57.29275399 146.45990743 -83.03955078 139.90209961 C-104.4337535 133.74362921 -122.34400563 121.99274968 -133.3203125 102.24975586 C-141.58725008 86.73026769 -145.07243222 67.67945288 -141 50.3125 C-137.38578432 39.38461203 -131.76184539 28.51713884 -124 20 C-123.28457031 19.19304687 -122.56914062 18.38609375 -121.83203125 17.5546875 C-91.38502576 -14.92874087 -38.34224886 -19.53903271 0 0 Z " fill="#EF2C2E" transform="translate(419,422)"/>
<path d="M0 0 C1.09570312 0.00064453 2.19140625 0.00128906 3.3203125 0.00195312 C11.35933601 0.04683601 11.35933601 0.04683601 12.5 1.1875 C13.8469511 1.52787147 15.20485674 1.82531453 16.56640625 2.1015625 C30.51475372 5.09854628 43.29881434 10.69877562 56.11303711 16.87255859 C62.25168902 19.80602331 68.33520466 22.28899867 74.83056641 24.32373047 C77.5 25.1875 77.5 25.1875 80.14746094 26.27636719 C87.81969083 29.24780367 97.50402526 27.67662176 104.90625 24.57421875 C112.52602963 20.50039079 118.06565224 15.16899293 122.63671875 7.875 C124.5 6.1875 124.5 6.1875 127.6015625 5.515625 C133.25150229 6.48936212 136.73986381 9.45403669 141.1875 12.9375 C142.02861328 13.57171875 142.86972656 14.2059375 143.73632812 14.859375 C154.17741762 22.80818223 154.17741762 22.80818223 154.953125 26.125 C153.79536065 37.88076106 144.3015111 47.02570597 136.5 55.1875 C135.88769531 55.87457031 135.27539062 56.56164062 134.64453125 57.26953125 C125.07590757 67.61343787 109.60804593 77.2288527 95.2644043 78.36450195 C70.32290826 78.99084668 50.54959468 70.84145201 28.47412109 60.14111328 C14.00447094 53.14614748 -1.93981761 45.90499773 -18.0859375 51.41015625 C-29.93433076 57.36249633 -38.61215226 66.74770152 -46.5 77.1875 C-47.5 78.1875 -47.5 78.1875 -50.4296875 78.58203125 C-55.83937593 78.50056836 -60.07746416 75.53836478 -64.625 72.875 C-65.94564453 72.12573242 -65.94564453 72.12573242 -67.29296875 71.36132812 C-71.39511649 69.02564068 -75.466202 66.63958053 -79.5 64.1875 C-79.13832282 57.01069004 -77.54594979 52.45188923 -73.6875 46.4375 C-72.95696411 45.27178467 -72.95696411 45.27178467 -72.21166992 44.08251953 C-67.4105676 36.6501836 -61.73986482 30.41853898 -55.5 24.1875 C-54.48873047 23.06988281 -54.48873047 23.06988281 -53.45703125 21.9296875 C-39.51887133 6.77305304 -20.18285094 -0.23212722 0 0 Z " fill="#FCCF26" transform="translate(651.5,330.8125)"/>
<path d="M0 0 C10.89 0 21.78 0 33 0 C33 18.15 33 36.3 33 55 C50.82 55 68.64 55 87 55 C87 37.18 87 19.36 87 1 C97.56 1 108.12 1 119 1 C119 45.88 119 90.76 119 137 C108.44 137 97.88 137 87 137 C87 119.18 87 101.36 87 83 C68.85 83 50.7 83 32 83 C32 100.82 32 118.64 32 137 C21.44 137 10.88 137 0 137 C0 91.79 0 46.58 0 0 Z " fill="#ED1114" transform="translate(129,924)"/>
<path d="M0 0 C8.92884839 7.95443064 13.39007947 19.2075914 14.20263672 30.92114258 C14.30340082 34.03405141 14.32917658 37.1355288 14.3125 40.25 C14.30686035 41.35029541 14.3012207 42.45059082 14.29541016 43.58422852 C14.10872262 56.11539853 12.61324155 66.66258909 5 77 C4.49726563 77.70769531 3.99453125 78.41539063 3.4765625 79.14453125 C-3.8496895 88.48996978 -15.1514109 93.67721179 -26.67919922 95.72021484 C-34.72260205 96.6898908 -42.93470196 96.20038008 -51 96 C-51 106.89 -51 117.78 -51 129 C-61.23 129 -71.46 129 -82 129 C-82 85.11 -82 41.22 -82 -4 C-71.4214179 -7.02245203 -61.8769745 -7.11880191 -51 -7 C-51 -6.34 -51 -5.68 -51 -5 C-50.175 -5.309375 -49.35 -5.61875 -48.5 -5.9375 C-32.72971982 -10.72490648 -13.41383861 -9.9056039 0 0 Z " fill="#ED1013" transform="translate(475,966)"/>
<path d="M0 0 C0.05784708 4.12494151 0.09354407 8.24977944 0.125 12.375 C0.14175781 13.550625 0.15851563 14.72625 0.17578125 15.9375 C0.18222656 17.05898438 0.18867187 18.18046875 0.1953125 19.3359375 C0.20578613 20.37282715 0.21625977 21.4097168 0.22705078 22.47802734 C0 25 0 25 -2 27 C-6.21779685 26.6987288 -9.78133734 25.32850286 -13.703125 23.83203125 C-26.65789857 19.13923062 -41.85405147 17.18592504 -54.8125 22.875 C-65.23459571 28.23493494 -70.15214543 35.14043294 -74.0546875 46.046875 C-78.69434216 60.54100279 -76.88246826 75.60050427 -70 89 C-66.01538865 95.83076232 -61.28115416 99.93230561 -54 103 C-52.72962891 103.55494141 -52.72962891 103.55494141 -51.43359375 104.12109375 C-46.48371738 105.38812695 -41.70882217 105.20961804 -36.625 105.125 C-33.11875 105.08375 -29.6125 105.0425 -26 105 C-25.67 96.42 -25.34 87.84 -25 79 C-32.26 79 -39.52 79 -47 79 C-47 71.41 -47 63.82 -47 56 C-39.61267325 55.97709751 -32.22546868 55.95716843 -24.83813477 55.94506836 C-22.32283105 55.94002637 -19.80753028 55.93319297 -17.29223633 55.92456055 C-13.68570225 55.91248906 -10.07920677 55.90677051 -6.47265625 55.90234375 C-4.77424339 55.89460182 -4.77424339 55.89460182 -3.04151917 55.88670349 C-1.48001381 55.88659019 -1.48001381 55.88659019 0.11303711 55.88647461 C1.03459091 55.884254 1.95614471 55.88203339 2.90562439 55.87974548 C5 56 5 56 6 57 C6.09870073 58.61368933 6.12798859 60.23168428 6.12939453 61.84838867 C6.13254669 62.88424606 6.13569885 63.92010345 6.13894653 64.98735046 C6.13591019 66.68550652 6.13591019 66.68550652 6.1328125 68.41796875 C6.13376923 69.5819368 6.13472595 70.74590485 6.13571167 71.94514465 C6.13639441 74.42265883 6.13453363 76.90017477 6.13037109 79.37768555 C6.12508645 83.12618178 6.13028017 86.87455472 6.13671875 90.62304688 C6.14255909 113.88802729 6.14255909 113.88802729 5 125 C-9.71085042 130.61135532 -23.27930675 133.52840125 -38.9987793 133.39111328 C-41.19707488 133.37492951 -43.39355388 133.39112384 -45.59179688 133.41015625 C-63.96739762 133.43899708 -79.53477132 128.08777259 -92.8984375 115.1640625 C-104.94217386 102.27884237 -109.96294941 85.21010151 -111 68 C-111.05414062 67.25621094 -111.10828125 66.51242187 -111.1640625 65.74609375 C-111.90973803 46.25684702 -106.44245252 26.33434023 -93.5 11.625 C-92.0154467 10.06845331 -90.51686344 8.52507751 -89 7 C-88.20722656 6.15501953 -88.20722656 6.15501953 -87.3984375 5.29296875 C-67.16041457 -14.37423815 -22.75020318 -14.66542023 0 0 Z " fill="#FACE25" transform="translate(897,931)"/>
<path d="M0 0 C10.56 0 21.12 0 32 0 C32.01401855 4.19275635 32.01401855 4.19275635 32.02832031 8.47021484 C32.06216581 17.73031351 32.11775692 26.9901911 32.18390274 36.25011253 C32.22332465 41.86157739 32.25553915 47.47288656 32.27099609 53.08447266 C32.28619734 58.50522785 32.32070479 63.92555487 32.36830902 69.34611893 C32.38308702 71.40880221 32.39103895 73.47154664 32.39188385 75.53428268 C32.39426604 78.43526006 32.42144623 81.33506607 32.45410156 84.23583984 C32.4490712 85.07885651 32.44404083 85.92187317 32.43885803 86.79043579 C32.55813404 93.68901845 34.03975696 100.75341145 38.80841446 105.98334312 C44.81555699 111.39141486 50.46521633 111.34680633 58.3203125 111.21484375 C64.19316996 110.87194868 67.20756255 109.50727694 71.75 105.6875 C77.97222222 98.25540123 78.13927141 90.2972564 78.20532227 81.03540039 C78.21522186 80.16631042 78.22512146 79.29722046 78.23532104 78.40179443 C78.26672066 75.55044204 78.29160764 72.69907304 78.31640625 69.84765625 C78.33699441 67.86225469 78.35799136 65.87685734 78.37937927 63.89146423 C78.43440768 58.68178726 78.4839013 53.47207199 78.53222656 48.2623291 C78.58258253 42.93982562 78.63819482 37.61737731 78.69335938 32.29492188 C78.80070554 21.86332677 78.90171608 11.43168443 79 1 C89.56 1 100.12 1 111 1 C111.04545235 11.91940217 111.08203095 22.83873997 111.10362434 33.7582159 C111.11399579 38.83030186 111.12803139 43.90231891 111.15087891 48.97436523 C111.17284699 53.88272833 111.18461832 58.79102576 111.18975449 63.69943428 C111.19340776 65.55821323 111.20053942 67.41698921 111.21146011 69.27573967 C111.26257304 78.34851686 111.15503816 87.31918545 110.12451172 96.34204102 C110.04837206 97.0155683 109.9722324 97.68909559 109.89378548 98.3830328 C108.12654013 112.08284168 101.59293974 122.76131172 91.09375 131.50390625 C87.60962465 133.99349582 83.9933165 135.51481967 80 137 C79.30672607 137.2678833 78.61345215 137.5357666 77.89916992 137.81176758 C70.86624498 140.23970041 64.11626543 140.49342533 56.71508789 140.44604492 C54.70028621 140.43755389 52.68835036 140.46635887 50.67382812 140.49804688 C37.00277226 140.49132891 24.17933019 137.35993396 13.81640625 128.03515625 C3.74734647 117.50927712 -0.33919345 105.10083363 -0.22705078 90.8203125 C-0.22734283 89.83403366 -0.22763489 88.84775482 -0.22793579 87.83158875 C-0.22655081 84.59596732 -0.21102883 81.36058083 -0.1953125 78.125 C-0.19157942 75.87199021 -0.18873384 73.61897879 -0.18673706 71.3659668 C-0.17912389 65.45423857 -0.15949532 59.5426096 -0.1373291 53.63092041 C-0.11682071 47.59120018 -0.10772468 41.55146381 -0.09765625 35.51171875 C-0.07624721 23.67442868 -0.04108396 11.83723815 0 0 Z " fill="#FBCF27" transform="translate(664,924)"/>
<path d="M0 0 C0.68723145 -0.00572021 1.37446289 -0.01144043 2.08251953 -0.01733398 C15.59266529 -0.09631241 26.41575 1.97365187 36.625 11.1875 C43.3897494 18.33933316 44.50466978 27.45101059 44.48852539 36.91162109 C44.48867142 37.63426147 44.48881744 38.35690186 44.4889679 39.10144043 C44.48827561 41.47130416 44.48051546 43.84108763 44.47265625 46.2109375 C44.47078964 47.86145993 44.46936688 49.51198292 44.46836853 51.1625061 C44.4645625 55.49271187 44.45474866 59.82288374 44.44366455 64.15307617 C44.43340917 68.57730654 44.42886209 73.00154241 44.42382812 77.42578125 C44.41312458 86.0963714 44.39554338 94.76692757 44.375 103.4375 C35.465 103.4375 26.555 103.4375 17.375 103.4375 C16.385 100.7975 15.395 98.1575 14.375 95.4375 C13.67375 95.90800781 12.9725 96.37851563 12.25 96.86328125 C11.30125 97.48589844 10.3525 98.10851563 9.375 98.75 C7.9828125 99.67232422 7.9828125 99.67232422 6.5625 100.61328125 C-3.56530258 106.40946238 -14.15138455 106.89259837 -25.625 105.4375 C-29.72114427 104.10210961 -32.50557203 102.38109383 -35.625 99.4375 C-36.21152344 98.89609375 -36.79804688 98.3546875 -37.40234375 97.796875 C-43.16565865 91.76582664 -45.8449111 85.25414212 -46 76.9375 C-45.6413206 67.2979911 -44.18495575 59.84885426 -37.625 52.4375 C-26.00243397 42.73794035 -13.12672567 41.09139833 1.5 41.3125 C2.64726563 41.32152344 3.79453125 41.33054687 4.9765625 41.33984375 C7.77626748 41.36317462 10.57551695 41.39590768 13.375 41.4375 C13.23351011 39.8329444 13.08664314 38.22886233 12.9375 36.625 C12.85628906 35.73167969 12.77507813 34.83835937 12.69140625 33.91796875 C12.44010233 31.31006441 12.44010233 31.31006441 11.375 28.4375 C5.02111015 25.65556211 -2.59563347 26.16689809 -9.375 26.25 C-10.38949219 26.25064453 -11.40398438 26.25128906 -12.44921875 26.25195312 C-17.00928813 26.27891806 -21.15644352 26.49189699 -25.625 27.4375 C-27.39477761 27.50209042 -29.16670152 27.52361065 -30.9375 27.5 C-31.82050781 27.49097656 -32.70351563 27.48195313 -33.61328125 27.47265625 C-34.27714844 27.46105469 -34.94101562 27.44945312 -35.625 27.4375 C-36.87411667 19.78666042 -36.71553426 12.16309014 -36.625 4.4375 C-24.43947648 1.15678213 -12.57720624 0.0188065 0 0 Z " fill="#EC1013" transform="translate(541.625,957.5625)"/>
<path d="M0 0 C3.07275391 -0.34057617 3.07275391 -0.34057617 6.9765625 -0.29296875 C7.66181 -0.28872391 8.3470575 -0.28447906 9.05307007 -0.28010559 C11.24411129 -0.26329753 13.43423632 -0.22564405 15.625 -0.1875 C17.10936173 -0.17245579 18.59373785 -0.15876693 20.078125 -0.14648438 C23.71904833 -0.1133879 27.35943478 -0.06159207 31 0 C31.0703695 16.67354225 31.12312405 33.34703564 31.15543652 50.02069092 C31.1708447 57.76417025 31.19181709 65.50755681 31.22631836 73.25097656 C31.2564075 80.00741838 31.27561884 86.76379295 31.28226548 93.52029991 C31.28614505 97.09123445 31.29513289 100.66197677 31.31719017 104.23284912 C31.5845498 149.31661425 31.5845498 149.31661425 17 165 C10.82072366 170.89616209 3.97475741 174.12650441 -4 177 C-5.36318359 177.55494141 -5.36318359 177.55494141 -6.75390625 178.12109375 C-11.12917623 179.30573364 -15.23920664 179.29119446 -19.75 179.25 C-20.61238281 179.25773437 -21.47476563 179.26546875 -22.36328125 179.2734375 C-23.18699219 179.27085937 -24.01070312 179.26828125 -24.859375 179.265625 C-25.60670898 179.26336914 -26.35404297 179.26111328 -27.12402344 179.25878906 C-29 179 -29 179 -31 177 C-31.50244141 174.92456055 -31.50244141 174.92456055 -31.8515625 172.38671875 C-31.98046875 171.46826172 -32.109375 170.54980469 -32.2421875 169.60351562 C-32.43167969 168.16008789 -32.43167969 168.16008789 -32.625 166.6875 C-32.7590625 165.73681641 -32.893125 164.78613281 -33.03125 163.80664062 C-33.62173535 159.49549501 -34.07298615 155.35824609 -34 151 C-32.49759766 150.94392578 -32.49759766 150.94392578 -30.96484375 150.88671875 C-21.65449919 150.45990692 -13.95881862 149.95881862 -7 143 C-3.85951212 136.9433448 -2.88334936 131.23763696 -2.85523987 124.47724915 C-2.84834137 123.40473907 -2.84144287 122.332229 -2.83433533 121.22721863 C-2.83172195 120.06595963 -2.82910858 118.90470062 -2.82641602 117.70825195 C-2.819729 116.47349121 -2.81304199 115.23873047 -2.80615234 113.96655273 C-2.79212256 111.29016644 -2.77979161 108.61383321 -2.77020454 105.93743324 C-2.7547021 101.70606574 -2.73075635 97.47477183 -2.70530701 93.24345398 C-2.63422625 81.21467741 -2.57421574 69.18586034 -2.52319336 57.15698242 C-2.49490973 50.50641338 -2.45954809 43.85591927 -2.41653961 37.20542878 C-2.38975708 32.99804818 -2.37185921 28.79075219 -2.36050236 24.58330309 C-2.34925039 21.35667316 -2.32512574 18.13013522 -2.30297852 14.90356445 C-2.30238937 13.73623276 -2.30180023 12.56890106 -2.30119324 11.36619568 C-2.29147491 10.30214508 -2.28175659 9.23809448 -2.27174377 8.14179993 C-2.26751184 7.21581655 -2.2632799 6.28983316 -2.25891972 5.33578968 C-2 3 -2 3 0 0 Z " fill="#F9CC25" transform="translate(613,925)"/>
<path d="M0 0 C2.28665857 2.28665857 2.60280348 3.6080829 3.4375 6.6875 C4.60596241 10.98076473 6.24250827 14.91405475 8 19 C8.75471848 21.17881626 9.48280154 23.36699542 10.1875 25.5625 C12.33214064 32.13003913 14.63736418 38.63289248 17 45.125 C17.4798938 46.44673218 17.4798938 46.44673218 17.96948242 47.79516602 C18.28892822 48.66971436 18.60837402 49.5442627 18.9375 50.4453125 C19.39788414 51.72297989 19.39788414 51.72297989 19.86756897 53.02645874 C20.60853692 54.9720949 21.40842951 56.89653835 22.27154541 58.79115295 C26.28028756 67.92838231 26.72030278 76.16232952 26.671875 85.92578125 C26.68221056 87.54721621 26.69482217 89.16863804 26.70954895 90.79003906 C26.73618459 94.20376934 26.74814504 97.61708096 26.74758911 101.03091431 C26.74676246 106.35896491 26.77829255 111.68650522 26.81616211 117.0144043 C26.85246699 122.27808856 26.88765179 127.54173738 26.91123962 132.80549622 C26.96378433 144.22256849 27.13385039 155.62871161 27.49169922 167.04077148 C27.90684461 180.36121225 28.15372211 193.68363255 28.23117065 207.01034546 C28.24358329 208.85757513 28.26098388 210.70477898 28.28372192 212.5519104 C28.31330145 215.0829563 28.32345815 217.61333326 28.328125 220.14453125 C28.34042648 220.89859253 28.35272797 221.65265381 28.36540222 222.42956543 C28.34375804 227.50647175 28.34375804 227.50647175 26.81821728 229.69666767 C24.30874882 231.49550185 22.62598952 231.3544302 19.55207825 231.32279968 C17.85464729 231.31636444 17.85464729 231.31636444 16.1229248 231.30979919 C14.88071167 231.28966263 13.63849854 231.26952606 12.35864258 231.2487793 C11.05122604 231.23946381 9.74380951 231.23014832 8.39677429 231.22055054 C4.8100633 231.19465227 1.22379611 231.15010197 -2.3626802 231.10225272 C-6.11020564 231.05541013 -9.85786532 231.02565059 -13.60554504 230.99409485 C-20.7029628 230.93172993 -27.8001251 230.85395632 -34.89732486 230.77067453 C-42.97693854 230.67661284 -51.05668676 230.59968603 -59.13649213 230.52421319 C-75.75788618 230.36856935 -92.37897797 230.19135951 -109 230 C-109.38218767 228.34385343 -109.71395102 226.67542976 -110 225 C-107.94985395 222.94985395 -103.69402325 223.67154716 -100.8671875 223.5703125 C-99.11253998 223.49809869 -97.35790171 223.42565998 -95.60327148 223.35302734 C-94.670383 223.31602722 -93.73749451 223.2790271 -92.77633667 223.24090576 C-80.2982589 222.7424179 -67.82762222 222.21122063 -55.37890625 221.203125 C-54.11185852 221.100569 -54.11185852 221.100569 -52.81921387 220.99594116 C-48.86900052 220.67087092 -44.92101682 220.32835418 -40.97412109 219.96533203 C-27.65266547 218.79373162 -14.36502875 218.86074139 -1 219 C-1.00222061 218.16413361 -1.00444122 217.32826721 -1.00672913 216.46707153 C-1.18662494 145.3154259 -1.18662494 145.3154259 -0.5 113.4375 C0.03839894 88.41551282 0.08483051 63.40188072 0.0625 38.375 C0.06164398 37.41505505 0.06078796 36.45511009 0.05990601 35.4660759 C0.0485417 23.64403129 0.02842481 11.8220157 0 0 Z " fill="#B40308" transform="translate(615,638)"/>
<path d="M0 0 C5.7618248 2.61197765 7.86235434 7.70478227 11 13 C11.48082031 13.77214844 11.96164062 14.54429687 12.45703125 15.33984375 C18.66131617 25.70531071 19.47002483 36.06775897 19.79638672 47.88110352 C19.93363217 52.76367635 20.08800833 57.6453221 20.25097656 62.52709961 C21.25988043 94.45539297 21.15325397 126.39277606 21.12856877 158.33300883 C21.12420323 164.65222852 21.12734915 170.97142844 21.1321975 177.29064691 C21.13674463 183.46990493 21.13737351 189.64915445 21.13475883 195.82841361 C21.13321411 199.48343666 21.1329535 203.13844632 21.13629532 206.79346848 C21.13973954 210.8367761 21.13495829 214.88003458 21.12939453 218.92333984 C21.13141876 220.10559647 21.13344299 221.28785309 21.13552856 222.50593567 C21.12074793 228.31728554 20.91932993 234.00923613 20.23136711 239.78203773 C19.88377467 243.11417476 19.83756981 246.44330363 19.76000977 249.79077148 C19.41141622 264.31784979 18.39609547 278.79754542 17.33047485 293.28695679 C17.15191821 295.71938189 16.97627607 298.15202271 16.80355835 300.58486938 C16.55643295 304.0455973 16.29759136 307.50524701 16.03515625 310.96484375 C15.96114594 312.01793732 15.88713562 313.07103088 15.81088257 314.15603638 C15.73415314 315.13055756 15.65742371 316.10507874 15.57836914 317.10913086 C15.48296593 318.38595985 15.48296593 318.38595985 15.38563538 319.68858337 C15 322 15 322 13 326 C10.69 323.36 8.38 320.72 6 318 C6.31388672 317.29415771 6.62777344 316.58831543 6.95117188 315.86108398 C8.03707964 312.89885095 8.45944804 310.35592455 8.78125 307.22265625 C8.90008545 306.08707275 9.0189209 304.95148926 9.14135742 303.78149414 C9.25970947 302.55422607 9.37806152 301.32695801 9.5 300.0625 C9.62673096 298.76111084 9.75346191 297.45972168 9.8840332 296.11889648 C10.1450141 293.39635608 10.39726296 290.6731702 10.64306641 287.94921875 C10.86530729 285.49027995 11.0931461 283.03183251 11.32958984 280.57421875 C16.23259067 228.50419411 12.98376135 175.31499287 8.53305054 123.31195068 C7.9512735 116.50326779 7.44222395 109.68979294 6.9375 102.875 C6.29695612 94.3386495 5.5371867 85.82217298 4.60913086 77.31201172 C4.16815902 73.18351858 3.90725073 69.1604672 4 65 C3.443125 65.27714844 2.88625 65.55429687 2.3125 65.83984375 C1.1678125 66.38318359 1.1678125 66.38318359 0 66.9375 C-0.7425 67.29714844 -1.485 67.65679688 -2.25 68.02734375 C-10.04854933 70.78563748 -18.710873 70.17598209 -26.8671875 70.203125 C-27.86663076 70.20736607 -27.86663076 70.20736607 -28.8862648 70.21169281 C-32.43052808 70.22663786 -35.97475135 70.23589003 -39.51904297 70.24023438 C-42.39092045 70.24457086 -45.26248931 70.25827834 -48.13427734 70.28125 C-74.54579455 70.48827902 -100.34980318 68.80515426 -126 62 C-126 61.67 -126 61.34 -126 61 C-124.56672363 61.0314209 -124.56672363 61.0314209 -123.10449219 61.06347656 C-84.30458272 61.83771401 -48.38984349 56.14013358 -18.875 28.375 C-10.88406615 20.12629409 -4.97419277 10.28908368 0 0 Z " fill="#BBBABB" transform="translate(471,521)"/>
<path d="M0 0 C0 7.59 0 15.18 0 23 C-8.59069021 21.92616372 -8.59069021 21.92616372 -11.9375 20.9375 C-16.57527173 19.85345142 -21.13511332 19.77835872 -25.875 19.75 C-26.62515381 19.740896 -27.37530762 19.73179199 -28.14819336 19.72241211 C-31.96009815 19.74355819 -33.75601833 19.83734555 -37 22 C-37.36297936 23.97747122 -37.36297936 23.97747122 -37.1875 26.125 C-37.125625 27.40375 -37.06375 28.6825 -37 30 C-33.83166715 31.28304388 -30.64723958 32.51744589 -27.453125 33.734375 C-2.5812759 43.31000116 -2.5812759 43.31000116 3.75 53.9375 C5.0517877 57.12687987 5.67630971 59.56888289 6 63 C6.07605469 63.78117187 6.15210938 64.56234375 6.23046875 65.3671875 C6.70199848 74.16057973 4.67601236 82.68203695 -1.125 89.49609375 C-12.58754199 100.04860284 -27.45558445 101.80436192 -42.4765625 101.36328125 C-51.33665059 100.83748837 -59.79400786 98.28239685 -68 95 C-68 86.75 -68 78.5 -68 70 C-64.24935997 70.75012801 -60.84098222 71.68103631 -57.22583008 72.86694336 C-46.63382785 76.2724974 -36.76468506 78.01860057 -26 74 C-25.896875 72.7625 -25.79375 71.525 -25.6875 70.25 C-25.60048828 69.20585938 -25.60048828 69.20585938 -25.51171875 68.140625 C-26.29322438 64.7145043 -28.0706215 63.87257739 -31 62 C-34.17537322 60.57956309 -37.42409009 59.38874593 -40.6875 58.1875 C-52.17056539 53.74780844 -61.07010439 49.29087134 -67 38 C-69.58098065 30.25705804 -69.44476297 18.7800063 -66 11.3125 C-60.52515798 2.40246299 -52.69391116 -1.94375118 -42.79296875 -4.58984375 C-28.63169651 -6.66947114 -13.10502851 -5.61644079 0 0 Z " fill="#EB1014" transform="translate(376,963)"/>
<path d="M0 0 C28.17869129 7.48739206 54.2178524 24.54128693 76.81787109 42.4375 C78.65744288 43.88425613 80.514567 45.30329428 82.38232422 46.71337891 C96.53373992 57.46073552 108.95929383 70.08049303 121.52294922 82.60009766 C122.05281433 83.1271933 122.58267944 83.65428894 123.12860107 84.19735718 C124.65370698 85.71662896 126.17492129 87.23968502 127.69482422 88.76416016 C128.57750977 89.64797363 129.46019531 90.53178711 130.36962891 91.44238281 C136.77294922 98.19045727 136.77294922 98.19045727 136.77294922 100.97509766 C137.43294922 100.97509766 138.09294922 100.97509766 138.77294922 100.97509766 C138.77294922 101.63509766 138.77294922 102.29509766 138.77294922 102.97509766 C123.47630689 100.03343567 114.57579686 91.54181772 104.21044922 80.66259766 C101.73796097 78.09618895 99.25644433 75.53877003 96.76904297 72.98681641 C95.87418938 72.06625961 95.87418938 72.06625961 94.96125793 71.12710571 C90.58846059 66.67825285 86.03982116 62.68244867 81.1171875 58.8425293 C78.69437015 56.91250119 76.45517169 54.85818846 74.21044922 52.72509766 C61.73711525 41.41436511 47.27297639 32.42824245 32.77294922 23.97509766 C31.77908203 23.39115234 30.78521484 22.80720703 29.76123047 22.20556641 C16.89310028 14.91554946 -0.13516388 5.52395469 -15.22705078 6.97509766 C-16.57438991 8.1024907 -16.57438991 8.1024907 -16.42626953 11.04541016 C-16.21339285 15.24450701 -15.25177806 18.86451566 -14.03955078 22.85009766 C-11.44271161 32.00224668 -9.92716708 41.26862501 -8.53955078 50.66259766 C-8.43736237 51.35053406 -8.33517395 52.03847046 -8.22988892 52.74725342 C-7.62841094 56.82399819 -7.0576161 60.90409543 -6.5043335 64.98764038 C-6.23663868 66.9063752 -5.94252983 68.82136777 -5.64746094 70.73608398 C-3.9360046 82.58012247 -3.91477062 94.33705884 -3.97705078 106.28759766 C-3.982202 107.90421799 -3.982202 107.90421799 -3.98745728 109.55349731 C-4.36954754 212.34336401 -4.36954754 212.34336401 -18.22705078 241.97509766 C-20.79345703 244.43212891 -20.79345703 244.43212891 -23.78955078 246.78759766 C-24.78083984 247.57779297 -25.77212891 248.36798828 -26.79345703 249.18212891 C-29.22705078 250.97509766 -29.22705078 250.97509766 -30.22705078 250.97509766 C-29.71117144 242.22293771 -28.47905606 233.63862177 -27.14697266 224.98413086 C-26.84014071 222.98114909 -26.53350933 220.97813659 -26.22705078 218.97509766 C-26.0725647 217.96927643 -25.91807861 216.9634552 -25.75891113 215.92715454 C-23.21423869 199.21443729 -21.24721594 182.52211371 -19.84399414 165.67553711 C-19.53980025 162.0405787 -19.21919776 158.40732533 -18.89697266 154.77392578 C-14.95522286 109.20479618 -13.05699198 62.42991712 -24.7980957 17.8046875 C-25.52665242 14.6972293 -25.43973335 11.5939086 -25.47705078 8.41259766 C-25.49767578 7.74035156 -25.51830078 7.06810547 -25.53955078 6.37548828 C-25.56197744 3.55253249 -25.53533664 1.47480284 -24.03173828 -0.96240234 C-17.39405984 -4.87029961 -7.05330883 -1.71042341 0 0 Z " fill="#F6F6F6" transform="translate(259.22705078125,299.02490234375)"/>
<path d="M0 0 C10.23 0 20.46 0 31 0 C31 33.33 31 66.66 31 101 C20.77 101 10.54 101 0 101 C0 67.67 0 34.34 0 0 Z " fill="#ED0F13" transform="translate(264,960)"/>
<path d="M0 0 C0.66 0 1.32 0 2 0 C5.56196928 4.02486837 8.54627127 8.53804127 11.625 12.9375 C12.70286366 14.4702359 13.78099218 16.00278557 14.859375 17.53515625 C15.65891602 18.67235107 15.65891602 18.67235107 16.47460938 19.83251953 C23.06792991 29.20119747 29.79523201 38.4635388 36.60571289 47.67553711 C40.71265655 53.23592117 44.77523767 58.82635941 48.8125 64.4375 C53.0041521 70.25992983 57.24655191 76.03629951 61.5703125 81.76171875 C64.68595525 85.89864423 67.74506291 90.07729205 70.8125 94.25 C76.70929537 102.26697362 82.65866789 110.24249806 88.64355469 118.19384766 C89.95678944 119.9424637 91.26461384 121.69497063 92.5703125 123.44921875 C97.17491129 129.64942988 97.17491129 129.64942988 102.0625 135.625 C104 138 104 138 104 140 C104.79019531 139.98839844 105.58039063 139.97679687 106.39453125 139.96484375 C112.94350335 139.91245197 119.43196806 140.04225444 125.96875 140.4375 C139.80455913 141.21595914 153.6587994 141.57334391 167.5090332 141.99578857 C171.18380323 142.10832146 174.85849933 142.22321911 178.53320312 142.33789062 C185.68873323 142.56084838 192.84433911 142.78127643 200 143 C199.125 148.875 199.125 148.875 198 150 C195.80685769 150.16237633 193.60837051 150.25242701 191.41015625 150.31640625 C190.70306015 150.33759521 189.99596405 150.35878418 189.2674408 150.38061523 C181.35563646 150.60585781 173.44162268 150.74894798 165.52783203 150.8828125 C160.87727696 150.96228622 156.2275782 151.06232199 151.57763672 151.171875 C145.02500195 151.32275541 138.47280016 151.42746603 131.91891479 151.50582886 C129.31102939 151.5435413 126.70330747 151.59518922 124.09597778 151.66091919 C120.39673209 151.75096497 116.70017319 151.78947661 113 151.81640625 C111.89107895 151.85451416 110.7821579 151.89262207 109.63963318 151.93188477 C102.18204418 151.91332769 102.18204418 151.91332769 98.78923035 149.29180908 C96.98994479 147.2744014 95.47050128 145.26545948 94 143 C93.58216751 142.3887175 93.16433502 141.777435 92.73384094 141.14762878 C91.53965085 139.33466484 90.41999127 137.49202341 89.3125 135.625 C85.85053517 129.91139772 82.25617657 124.30825158 78.52734375 118.765625 C74.05908073 112.09300605 69.6172251 105.40389172 65.203125 98.6953125 C64.63272995 97.82858917 64.0623349 96.96186584 63.47465515 96.06887817 C61.73269061 93.42119005 59.99127649 90.77314067 58.25 88.125 C51.19501464 77.39752984 44.13875712 66.67197991 37 56 C35.85907735 54.28926097 34.71844664 52.5783272 33.578125 50.8671875 C31.8644039 48.29647901 30.15053817 45.7258675 28.4362793 43.15551758 C25.55949185 38.84166773 22.68447022 34.52668679 19.81640625 30.20703125 C18.81530233 28.70038915 17.814005 27.19387553 16.8125 25.6875 C16.09126953 24.60263306 16.09126953 24.60263306 15.35546875 23.49584961 C11.40469327 17.57035375 7.37615255 11.70007485 3.30004883 5.86010742 C0 1.10629799 0 1.10629799 0 0 Z " fill="#B20306" transform="translate(682,716)"/>
<path d="M0 0 C20 0 20 0 28 4 C32.86287986 8.86287986 33.27583871 15.24960043 33.38037109 21.79321289 C33.34368137 41.56397273 33.34368137 41.56397273 27.6796875 48.65234375 C21.92074187 54.08085807 15.00961249 55.35075178 7.39453125 55.203125 C5 55 5 55 0 54 C0 36.18 0 18.36 0 0 Z " fill="#030100" transform="translate(424,983)"/>
<path d="M0 0 C5.08474365 1.94377105 8.08440818 4.56938778 11 9.125 C11.495 10.548125 11.495 10.548125 12 12 C12.3403125 12.928125 12.3403125 12.928125 12.6875 13.875 C13.80443754 21.47017528 12.66011545 27.24378688 9 34 C4.65114622 38.71125826 -1.62643591 41.09952179 -8 41.375 C-14.90466826 41.05007443 -19.97528126 38.60069011 -24.7734375 33.6953125 C-29.21906418 27.5507202 -28.66842582 20.24406488 -28 13 C-26.36426392 7.54444843 -22.43663717 4.27925356 -18 1 C-13.0676259 -1.46618705 -5.40436732 -0.75872124 0 0 Z " fill="#F6F6F6" transform="translate(192,1128)"/>
<path d="M0 0 C25.31180401 0 25.31180401 0 31.15625 4.75390625 C31.5996875 5.35074219 32.043125 5.94757813 32.5 6.5625 C32.9640625 7.16191406 33.428125 7.76132813 33.90625 8.37890625 C37.52522298 13.7427412 36.55760736 20.78940771 36 27 C34.40899453 31.80155461 31.76372125 34.78783515 27.5 37.4375 C18.22971078 41.57602197 11.03510022 40 0 40 C0 26.8 0 13.6 0 0 Z " fill="#F5F5F5" transform="translate(465,1128)"/>
<path d="M0 0 C4.9190625 -0.12375 4.9190625 -0.12375 9.9375 -0.25 C10.95191162 -0.28641602 11.96632324 -0.32283203 13.01147461 -0.36035156 C19.93237013 -0.44363065 26.39481805 0.62938511 31.62475586 5.51904297 C36.40837849 11.10517286 36.33667519 15.2577411 36.28515625 22.43359375 C35.83839378 28.02118465 34.09540507 31.74937974 30.3125 35.8125 C19.32141325 41.45657158 13.29201996 40 0 40 C0 26.8 0 13.6 0 0 Z " fill="#F6F6F6" transform="translate(380,1128)"/>
<path d="M0 0 C3.3 0 6.6 0 10 0 C11.67181476 2.95552967 13.33762179 5.91416962 15 8.875 C15.47695312 9.71675781 15.95390625 10.55851562 16.4453125 11.42578125 C16.89648438 12.23144531 17.34765625 13.03710938 17.8125 13.8671875 C18.44091797 14.98262939 18.44091797 14.98262939 19.08203125 16.12060547 C20 18 20 18 20 20 C20.66 20 21.32 20 22 20 C22.24492187 19.33613281 22.48984375 18.67226562 22.7421875 17.98828125 C24.31309331 14.2561603 26.19789136 10.74550093 28.125 7.1875 C28.49753906 6.49462891 28.87007812 5.80175781 29.25390625 5.08789062 C30.16690377 3.39065164 31.08312716 1.69514862 32 0 C35.3 0 38.6 0 42 0 C42.28811432 4.41060113 42.57281568 8.82140602 42.85449219 13.23242188 C42.9505821 14.72987672 43.04756974 16.22727427 43.14550781 17.72460938 C43.28692608 19.88917463 43.42500768 22.05393223 43.5625 24.21875 C43.64628906 25.51748047 43.73007812 26.81621094 43.81640625 28.15429688 C44.00549385 32.11507868 44.03085045 36.03571775 44 40 C40.7 40 37.4 40 34 40 C34 31.75 34 23.5 34 15 C33.34 15 32.68 15 32 15 C31.79375 15.78375 31.5875 16.5675 31.375 17.375 C29.50809162 22.29684938 27.45373888 26.97713485 24 31 C20.125 31.625 20.125 31.625 17 31 C16.04078278 29.25048432 15.08266183 27.50036756 14.125 25.75 C13.59132812 24.77546875 13.05765625 23.8009375 12.5078125 22.796875 C11.29794572 20.55266616 10.14019743 18.28039486 9 16 C8.34 23.92 7.68 31.84 7 40 C4.03 40 1.06 40 -2 40 C-1.93941406 38.95585938 -1.87882813 37.91171875 -1.81640625 36.8359375 C-1.11439515 24.56133703 -0.53952172 12.28272849 0 0 Z " fill="#F1F1F1" transform="translate(214,1128)"/>
<path d="M0 0 C10 0 10 0 12.28100586 1.68066406 C12.75417236 2.45120117 13.22733887 3.22173828 13.71484375 4.015625 C14.52598633 5.27439453 14.52598633 5.27439453 15.35351562 6.55859375 C15.87623047 7.44675781 16.39894531 8.33492187 16.9375 9.25 C17.48728516 10.12269531 18.03707031 10.99539063 18.60351562 11.89453125 C19.627162 13.51995762 20.63608254 15.15482495 21.62475586 16.80175781 C22.96604615 18.94572689 24.48262111 20.97682814 26 23 C26.33 15.41 26.66 7.82 27 0 C29.97 0 32.94 0 36 0 C36 13.2 36 26.4 36 40 C27 40 27 40 24.94140625 38.55859375 C24.48636719 37.85863281 24.03132812 37.15867187 23.5625 36.4375 C23.0159375 35.633125 22.469375 34.82875 21.90625 34 C21.2771875 33.01 20.648125 32.02 20 31 C19.11803932 29.68517519 18.23236784 28.37283479 17.34375 27.0625 C14.85854839 23.39768656 12.4340982 19.70116302 10 16 C9.67 23.92 9.34 31.84 9 40 C6.03 40 3.06 40 0 40 C0 26.8 0 13.6 0 0 Z " fill="#F1F1F1" transform="translate(826,1128)"/>
<path d="M0 0 C10 0 10 0 12.60400391 2.203125 C13.53092041 3.71132812 13.53092041 3.71132812 14.4765625 5.25 C15.16621094 6.3328125 15.85585938 7.415625 16.56640625 8.53125 C17.25338976 9.68703341 17.93957806 10.84328983 18.625 12 C19.34699064 13.15829454 20.07222423 14.31457436 20.80078125 15.46875 C22.56580153 18.29278244 24.287234 21.14397332 26 24 C26.33 16.08 26.66 8.16 27 0 C29.64 0 32.28 0 35 0 C35 13.2 35 26.4 35 40 C26 40 26 40 23.65234375 37.796875 C23.08644531 36.79140625 22.52054687 35.7859375 21.9375 34.75 C21.29683594 33.6671875 20.65617187 32.584375 19.99609375 31.46875 C19.67366699 30.90027344 19.35124023 30.33179688 19.01904297 29.74609375 C17.31277252 26.82246025 15.39833321 24.05246028 13.5 21.25 C12.345 19.5175 11.19 17.785 10 16 C9.67 23.92 9.34 31.84 9 40 C6.03 40 3.06 40 0 40 C0 26.8 0 13.6 0 0 Z " fill="#F5F5F6" transform="translate(313,1128)"/>
<path d="M0 0 C4.50665768 2.13473258 7.1741532 4.91822129 10 9 C11.5302087 13.59062609 11.9413765 18.37540138 10.28125 23.00390625 C7.62506261 27.96283674 4.3302525 31.22324917 -1 33 C-6.52821777 33.56575328 -12.16858518 34.12991655 -17 31 C-21.53275962 27.07678019 -23.66302073 22.35885487 -24.5 16.5 C-23.66758469 10.67309286 -21.53645032 5.9397473 -17.0625 2 C-11.92463969 -1.28066838 -5.83228932 -0.81171037 0 0 Z " fill="#E61114" transform="translate(286,914)"/>
<path d="M0 0 C3.3 0 6.6 0 10 0 C10 5.28 10 10.56 10 16 C15.28 16 20.56 16 26 16 C26 10.72 26 5.44 26 0 C28.97 0 31.94 0 35 0 C35 13.2 35 26.4 35 40 C32.03 40 29.06 40 26 40 C26 34.72 26 29.44 26 24 C20.72 24 15.44 24 10 24 C10 29.28 10 34.56 10 40 C6.7 40 3.4 40 0 40 C0 26.8 0 13.6 0 0 Z " fill="#EFEFEF" transform="translate(649,1128)"/>
<path d="M0 0 C20 0 20 0 28 3 C30.76995445 5.9430766 31.22022783 8.52001689 31.4375 12.4375 C31.24812206 16.99014563 30.20962574 19.62989298 27 23 C21.54071326 26.25338984 16.20650191 26.29092978 10 26 C10 30.62 10 35.24 10 40 C6.7 40 3.4 40 0 40 C0 26.8 0 13.6 0 0 Z " fill="#F2F2F2" transform="translate(749,1128)"/>
<path d="M0 0 C1.1456543 -0.01836914 1.1456543 -0.01836914 2.31445312 -0.03710938 C9.23835851 -0.05518746 9.23835851 -0.05518746 12.5625 2.1875 C12.5625 4.8275 12.5625 7.4675 12.5625 10.1875 C11.61375 9.8575 10.665 9.5275 9.6875 9.1875 C3.98676585 7.57692673 -1.9497617 7.09911449 -7.4375 9.5 C-10.11706563 11.7608835 -11.34349894 13.42018905 -11.7734375 16.9296875 C-11.78632812 17.96351562 -11.79921875 18.99734375 -11.8125 20.0625 C-11.84085938 21.09117188 -11.86921875 22.11984375 -11.8984375 23.1796875 C-11.31047795 27.01637268 -10.2927991 28.56936743 -7.4375 31.1875 C-4.19375969 32.21418445 -4.19375969 32.21418445 -0.6875 32.5 C0.48296875 32.64050781 1.6534375 32.78101563 2.859375 32.92578125 C3.75140625 33.01214844 4.6434375 33.09851562 5.5625 33.1875 C5.5625 30.2175 5.5625 27.2475 5.5625 24.1875 C3.2525 24.1875 0.9425 24.1875 -1.4375 24.1875 C-1.4375 22.2075 -1.4375 20.2275 -1.4375 18.1875 C3.8425 18.1875 9.1225 18.1875 14.5625 18.1875 C14.5625 24.7875 14.5625 31.3875 14.5625 38.1875 C-3.52730281 43.23581706 -3.52730281 43.23581706 -11.75 39.5625 C-16.54378358 36.8121272 -19.39616171 33.41893919 -21.75 28.375 C-23.249795 21.42140498 -23.26840587 14.40012037 -19.4375 8.1875 C-13.35978867 1.64129842 -8.87614555 0.00745268 0 0 Z " fill="#F3F3F3" transform="translate(610.4375,1127.8125)"/>
<path d="M0 0 C3.3 0 6.6 0 10 0 C14.03061935 10.02943724 18.04961134 20.06364409 22 30.125 C22.30236572 30.88796387 22.60473145 31.65092773 22.91625977 32.43701172 C25 37.76870196 25 37.76870196 25 40 C21.7 40 18.4 40 15 40 C14.34 37.03 13.68 34.06 13 31 C7.72 31 2.44 31 -3 31 C-3.66 33.97 -4.32 36.94 -5 40 C-8.3 40 -11.6 40 -15 40 C-14.29915688 35.5471739 -12.7597158 31.52579513 -11.09375 27.36328125 C-10.80898804 26.64262985 -10.52422607 25.92197845 -10.23083496 25.17948914 C-9.32448302 22.88891403 -8.41221705 20.60074472 -7.5 18.3125 C-6.88635281 16.76251462 -6.27306767 15.21238585 -5.66015625 13.66210938 C-1.18984983 2.37969966 -1.18984983 2.37969966 0 0 Z " fill="#F2F2F2" transform="translate(795,1128)"/>
<path d="M0 0 C2.97 0 5.94 0 9 0 C12.97743779 7.47969496 16.19555736 15.19577009 19.25488281 23.08203125 C19.99396526 24.98446629 20.74223157 26.88307886 21.4921875 28.78125 C25 37.73905367 25 37.73905367 25 40 C21.7 40 18.4 40 15 40 C14.01 37.36 13.02 34.72 12 32 C6.72 31.67 1.44 31.34 -4 31 C-4.66 33.97 -5.32 36.94 -6 40 C-9.3 40 -12.6 40 -16 40 C-11.5765119 26.45699852 -6.65786023 12.61489306 0 0 Z " fill="#F3F3F3" transform="translate(434,1128)"/>
<path d="M0 0 C3.3 0 6.6 0 10 0 C14.03061935 10.02943724 18.04961134 20.06364409 22 30.125 C22.30236572 30.88796387 22.60473145 31.65092773 22.91625977 32.43701172 C25 37.76870196 25 37.76870196 25 40 C21.7 40 18.4 40 15 40 C14.01 37.36 13.02 34.72 12 32 C7.05 32 2.1 32 -3 32 C-3.99 34.64 -4.98 37.28 -6 40 C-8.97 40 -11.94 40 -15 40 C-12.8782218 32.1369396 -9.92586022 24.79086487 -6.78515625 17.296875 C-4.39323386 11.58091232 -2.18772957 5.79697929 0 0 Z " fill="#F3F3F3" transform="translate(883,1128)"/>
<path d="M0 0 C3.3 0 6.6 0 10 0 C10.01458252 0.82725586 10.02916504 1.65451172 10.04418945 2.50683594 C10.1186586 6.25502881 10.2153246 10.00232997 10.3125 13.75 C10.33505859 15.05195312 10.35761719 16.35390625 10.38085938 17.6953125 C10.41630859 18.94570312 10.45175781 20.19609375 10.48828125 21.484375 C10.51446533 22.63647461 10.54064941 23.78857422 10.56762695 24.97558594 C11.0377211 28.26385599 11.60975843 29.7152764 14 32 C17.75684104 32.33543224 20.41996227 32.19334591 24 31 C25.97772944 27.2943552 26.29125846 23.9790888 26.4140625 19.82421875 C26.45273437 18.66728516 26.49140625 17.51035156 26.53125 16.31835938 C26.5621875 15.12017578 26.593125 13.92199219 26.625 12.6875 C26.66367187 11.46998047 26.70234375 10.25246094 26.7421875 8.99804688 C26.83628002 5.99884772 26.92192209 2.99965177 27 0 C29.97 0 32.94 0 36 0 C36.07455949 4.02009457 36.12879358 8.03991733 36.16479492 12.06054688 C36.17981428 13.42617816 36.20023608 14.79176176 36.22631836 16.15722656 C36.26300137 18.12803905 36.27818551 20.09921408 36.29296875 22.0703125 C36.3086792 23.25383301 36.32438965 24.43735352 36.34057617 25.65673828 C35.83145694 30.65450084 34.22342 33.898922 30.5 37.25 C23.98822828 41.8082402 18.86813847 41.72433956 11 41 C6.00084904 38.75900129 3.70440949 35.70767579 1 31 C-0.11911712 27.64264863 -0.11365586 25.11794614 -0.09765625 21.58203125 C-0.09443359 20.32841797 -0.09121094 19.07480469 -0.08789062 17.78320312 C-0.07951172 16.47287109 -0.07113281 15.16253906 -0.0625 13.8125 C-0.05748317 12.47721519 -0.05292059 11.14192859 -0.04882812 9.80664062 C-0.03702695 6.53771527 -0.02056297 3.26888009 0 0 Z " fill="#EFEFEF" transform="translate(267,1128)"/>
<path d="M0 0 C3.3 0 6.6 0 10 0 C10.01401855 1.24088379 10.01401855 1.24088379 10.02832031 2.50683594 C10.08200319 6.25516415 10.1656571 10.00224162 10.25 13.75 C10.26417969 15.05195312 10.27835938 16.35390625 10.29296875 17.6953125 C10.32519531 18.94570312 10.35742188 20.19609375 10.390625 21.484375 C10.41157227 22.63647461 10.43251953 23.78857422 10.45410156 24.97558594 C11.10804355 28.59858833 12.08373966 29.81247351 15 32 C18.55615217 32.37043252 21.59019864 32.04916965 25 31 C26.03042947 27.55301173 26.19794703 24.29074718 26.31640625 20.703125 C26.35830078 19.49785156 26.40019531 18.29257813 26.44335938 17.05078125 C26.48267578 15.79652344 26.52199219 14.54226563 26.5625 13.25 C26.62727539 11.34541016 26.62727539 11.34541016 26.69335938 9.40234375 C26.79939722 6.26833635 26.90146058 3.13425067 27 0 C29.97 0 32.94 0 36 0 C36.12467036 3.983314 36.21483313 7.96585506 36.2746582 11.95068359 C36.31182827 13.96362253 36.3753997 15.97601837 36.43945312 17.98828125 C36.53423042 25.53255366 36.43939808 31.36908067 31 37 C26.47253225 40.50300424 20.85805517 41.67939975 15.203125 41.3828125 C9.72298466 40.43058953 6.05705174 38.30098676 2.5625 34 C0.1688237 29.40414151 -0.12206162 25.87706264 -0.09765625 20.703125 C-0.09443359 19.49785156 -0.09121094 18.29257813 -0.08789062 17.05078125 C-0.07951172 15.79652344 -0.07113281 14.54226563 -0.0625 13.25 C-0.05798828 11.98027344 -0.05347656 10.71054688 -0.04882812 9.40234375 C-0.03704556 6.26818164 -0.02059416 3.13411459 0 0 Z " fill="#EEEDED" transform="translate(544,1128)"/>
<path d="M0 0 C1.8253125 0.00966797 1.8253125 0.00966797 3.6875 0.01953125 C6.33063144 0.15355796 8.49345523 0.40420476 11 1.1875 C11 3.8275 11 6.4675 11 9.1875 C10.360625 9.0225 9.72125 8.8575 9.0625 8.6875 C5.02413348 8.02817485 1.08192742 8.10746221 -3 8.1875 C-3.33 9.5075 -3.66 10.8275 -4 12.1875 C-0.68034741 14.51125681 2.49403556 16.45235899 6.1875 18.125 C9.76575815 19.8901828 11.56160457 21.32181228 13 25.1875 C13.53348798 30.16672113 13.16955197 33.25288376 10 37.1875 C4.58079191 41.0782135 -0.40713354 41.71346152 -7 41.1875 C-9.4131687 40.66487401 -11.65173042 39.97025653 -14 39.1875 C-14 36.5475 -14 33.9075 -14 31.1875 C-13.38125 31.3525 -12.7625 31.5175 -12.125 31.6875 C-7.74529271 32.38825317 -3.42571011 32.26484251 1 32.1875 C1.33 30.5375 1.66 28.8875 2 27.1875 C0.66195312 26.53394531 0.66195312 26.53394531 -0.703125 25.8671875 C-1.87359375 25.27164062 -3.0440625 24.67609375 -4.25 24.0625 C-5.41015625 23.48242188 -6.5703125 22.90234375 -7.765625 22.3046875 C-11.33840312 19.96598491 -12.96565294 17.91055263 -15 14.1875 C-15.66954002 10.17025986 -15.19231067 8.54464838 -13.25 4.9375 C-9.28665382 0.09341023 -6.15048009 -0.07166873 0 0 Z " fill="#F4F4F4" transform="translate(728,1127.8125)"/>
<path d="M0 0 C0 2.64 0 5.28 0 8 C-0.99 7.835 -1.98 7.67 -3 7.5 C-10.76276997 6.29601414 -10.76276997 6.29601414 -17.9375 8.875 C-21.8251088 12.88041513 -21.38520285 16.68520657 -21.359375 22.0703125 C-21.21326318 25.26309529 -21.21326318 25.26309529 -18.625 28.1875 C-13.39335207 31.79982833 -8.60766706 31.37252387 -2.5 30.5 C-1.2625 30.2525 -1.2625 30.2525 0 30 C0 32.64 0 35.28 0 38 C-7.07590101 40.46118296 -14.3083989 41.57667542 -21.3125 38.3125 C-26.58191974 35.28923696 -30.14258939 31.84921413 -32 26 C-32.3359375 22.44140625 -32.3359375 22.44140625 -32.375 18.5625 C-32.40335937 17.28503906 -32.43171875 16.00757813 -32.4609375 14.69140625 C-31.75836509 9.06487298 -29.13707594 6.08763786 -25.125 2.25 C-17.23439101 -3.43123847 -8.87177227 -3.02017779 0 0 Z " fill="#F4F4F4" transform="translate(158,1129)"/>
<path d="M0 0 C0.88945313 0.00644531 1.77890625 0.01289062 2.6953125 0.01953125 C3.61570312 0.03628906 4.53609375 0.05304687 5.484375 0.0703125 C6.42023437 0.07933594 7.35609375 0.08835937 8.3203125 0.09765625 C10.62526157 0.12117614 12.9296866 0.15404397 15.234375 0.1953125 C15.36955403 2.94695682 15.46852751 5.69195771 15.546875 8.4453125 C15.58876953 9.22261719 15.63066406 9.99992187 15.67382812 10.80078125 C15.79786486 16.60570059 15.79786486 16.60570059 12.875 19.6640625 C6.46903298 23.37876527 -0.42945891 24.40097768 -7.765625 23.1953125 C-10.7050869 20.77399303 -12.58727386 18.84725337 -13.00390625 14.98828125 C-13.20446511 7.94760982 -13.20446511 7.94760982 -11.015625 4.1953125 C-7.43135156 1.00929166 -4.79382872 -0.06145934 0 0 Z " fill="#050101" transform="translate(539.765625,1017.8046875)"/>
<path d="M0 0 C3.3 0 6.6 0 10 0 C10.09940554 5.40766124 10.17172051 10.81478228 10.21972656 16.22314453 C10.23975373 18.06015293 10.26698382 19.89709829 10.30175781 21.73388672 C10.35067065 24.38525002 10.37305763 27.03576541 10.390625 29.6875 C10.41127014 30.49928711 10.43191528 31.31107422 10.45318604 32.14746094 C10.45539586 37.85410501 9.25374495 42.25028248 6 47 C1.96608335 49.76611427 -3.24641775 49.42232239 -8 49 C-9 48 -9 48 -9.0625 44.9375 C-9.041875 43.968125 -9.02125 42.99875 -9 42 C-7.865625 41.71125 -6.73125 41.4225 -5.5625 41.125 C-4.386875 40.75375 -3.21125 40.3825 -2 40 C-0.36342246 36.72684491 -0.7569193 33.09377769 -0.68359375 29.4921875 C-0.66281265 28.65156769 -0.64203156 27.81094788 -0.62062073 26.94485474 C-0.55514561 24.25498765 -0.4962498 21.56502157 -0.4375 18.875 C-0.39431284 17.05337511 -0.35069848 15.23176029 -0.30664062 13.41015625 C-0.19946632 8.94020606 -0.09819315 4.47015614 0 0 Z " fill="#EAEAEA" transform="translate(525,1128)"/>
<path d="M0 0 C4.88986709 0.32599114 7.34057634 1.84057634 10.75 5.25 C12.67691278 10.25997323 12.33296724 15.62382822 10.5625 20.5625 C8.51053748 23.60506512 7.12672835 24.83648581 3.75 26.25 C-0.87373012 26.82796627 -3.56959072 26.11254055 -7.25 23.25 C-10.51885014 18.23776311 -9.9900677 11.97464135 -9.25 6.25 C-7.82814894 3.72851592 -6.69192608 2.91765684 -4.25 1.25 C-3.25 0.25 -3.25 0.25 0 0 Z " fill="#090908" transform="translate(183.25,1134.75)"/>
<path d="M0 0 C3.3 0 6.6 0 10 0 C10 13.2 10 26.4 10 40 C6.7 40 3.4 40 0 40 C0 26.8 0 13.6 0 0 Z " fill="#E2E2E2" transform="translate(359,1128)"/>
<path d="M0 0 C11.30769231 0 11.30769231 0 15 3 C17.9627504 5.9627504 17.93004595 8.24449624 18.3125 12.375 C17.93762145 16.72359123 16.78139206 18.67778171 14 22 C10 24 10 24 0 24 C0 16.08 0 8.16 0 0 Z " fill="#070707" transform="translate(389,1136)"/>
<path d="M0 0 C11.30769231 0 11.30769231 0 15 3 C17.72434214 5.72434214 17.6957599 7.86939811 18.02734375 11.61328125 C17.98277842 15.50319826 17.00992024 17.65013294 15 21 C10.2793756 25.43452595 7.18442308 24 0 24 C0 16.08 0 8.16 0 0 Z " fill="#050404" transform="translate(474,1136)"/>
<path d="M0 0 C2.97 0 5.94 0 9 0 C9 13.2 9 26.4 9 40 C6.03 40 3.06 40 0 40 C0 26.8 0 13.6 0 0 Z " fill="#F2F2F1" transform="translate(696,1128)"/>
<path d="M0 0 C0 0.66 0 1.32 0 2 C0.66 2 1.32 2 2 2 C2 3.65 2 5.3 2 7 C2.99 7.33 3.98 7.66 5 8 C5.9375 9.8125 5.9375 9.8125 6 12 C4.12821922 14.5197049 2.5961698 15.75830954 -0.3125 16.9375 C-4.14799729 17.02669761 -6.56770628 15.68249692 -10 14 C-10 12.02 -10 10.04 -10 8 C-10.66 7.67 -11.32 7.34 -12 7 C-11.8125 5.1875 -11.8125 5.1875 -11 3 C-4.65116279 -1.39534884 -4.65116279 -1.39534884 0 0 Z " fill="#FDCAC1" transform="translate(338,440)"/>
<path d="M0 0 C7.38728591 -0.02464071 14.77454812 -0.0428316 22.16186523 -0.05493164 C24.67716895 -0.05997363 27.19246972 -0.06680703 29.70776367 -0.07543945 C33.31429775 -0.08751094 36.92079323 -0.09322949 40.52734375 -0.09765625 C42.22575661 -0.10539818 42.22575661 -0.10539818 43.95848083 -0.11329651 C45.51998619 -0.11340981 45.51998619 -0.11340981 47.11303711 -0.11352539 C48.03459091 -0.115746 48.95614471 -0.11796661 49.90562439 -0.12025452 C52 0 52 0 53 1 C53.09353163 2.68801985 53.11744791 4.37995207 53.11352539 6.07055664 C53.11344986 7.15160172 53.11337433 8.23264679 53.11329651 9.34645081 C53.10813522 10.5224736 53.10297394 11.6984964 53.09765625 12.91015625 C53.0962413 14.10732773 53.09482635 15.30449921 53.09336853 16.53794861 C53.08774979 20.37949066 53.07519411 24.22097543 53.0625 28.0625 C53.05748741 30.65950437 53.05292409 33.25650965 53.04882812 35.85351562 C53.03777427 42.23569679 53.02101792 48.6178443 53 55 C52.67 55 52.34 55 52 55 C51.67 37.84 51.34 20.68 51 3 C26.25 2.505 26.25 2.505 1 2 C1 5.3 1 8.6 1 12 C0.67 12 0.34 12 0 12 C0 8.04 0 4.08 0 0 Z " fill="#C8A924" transform="translate(850,987)"/>
<path d="M0 0 C7.2 -0.36 7.2 -0.36 10.5 1.125 C12 3 12 3 12.5 6 C12 9 12 9 10.5 10.875 C6.87739877 12.50517055 3.95453342 12.19772667 0 12 C0 8.04 0 4.08 0 0 Z " fill="#161615" transform="translate(758,1135)"/>
<path d="M0 0 C3.49832218 4.66442957 3.92640115 7.38425216 5 13 C1.7 13 -1.6 13 -5 13 C-3.35 8.71 -1.7 4.42 0 0 Z " fill="#131313" transform="translate(438,1139)"/>
<path d="M0 0 C2.73370045 2.36092311 3.91097645 4.56538728 5 8 C5 9.32 5 10.64 5 12 C2.03 12 -0.94 12 -4 12 C-3.45660208 7.43545749 -2.20536179 4.0271824 0 0 Z " fill="#151516" transform="translate(887,1140)"/>
<path d="M0 0 C2.7053871 4.05808065 5 8.04889399 5 13 C2.03 13 -0.94 13 -4 13 C-2.125 3.89285714 -2.125 3.89285714 0 0 Z " fill="#101010" transform="translate(799,1139)"/>
<path d="M0 0 C2 1 2 1 2.875 2.8125 C3 5 3 5 1.375 7.1875 C-1.33151291 9.25299669 -2.59991266 9.9209282 -6 10 C-8.47080208 9.18669432 -10.65246094 8.15075444 -13 7 C-13 5.35 -13 3.7 -13 2 C-12.01 3.485 -12.01 3.485 -11 5 C-6.92996134 5.53165627 -6.92996134 5.53165627 -3 5 C-0.91783124 2.6450037 -0.91783124 2.6450037 0 0 Z " fill="#FDC0B6" transform="translate(341,447)"/>
<path d="M0 0 C2.00720923 0.28674418 4.0085944 0.61866701 6 1 C6.625 2.875 6.625 2.875 7 5 C5 7 5 7 2.5 7.25 C0 7 0 7 -2 5 C-1.46428571 1.46428571 -1.46428571 1.46428571 0 0 Z " fill="#FEDFD9" transform="translate(332,444)"/>
<path d="M0 0 C2.31 0 4.62 0 7 0 C8.36118461 2.24195113 9.06138028 3.47826762 8.75 6.125 C8 8 8 8 6 10 C2.375 9.625 2.375 9.625 -1 9 C-1 8.01 -1 7.02 -1 6 C-0.67 6.33 -0.34 6.66 0 7 C1.66617115 7.04063832 3.33388095 7.042721 5 7 C5.33 5.68 5.66 4.36 6 3 C4.02 2.34 2.04 1.68 0 1 C0 0.67 0 0.34 0 0 Z " fill="#FED5CD" transform="translate(332,443)"/>
<path d="M0 0 C0.66 0.33 1.32 0.66 2 1 C1.44299928 4.23060419 0.70784878 6.0658223 -2 8 C-4.6875 8.1875 -4.6875 8.1875 -7 8 C-7 7.34 -7 6.68 -7 6 C-6.21625 5.7525 -5.4325 5.505 -4.625 5.25 C-1.67682892 3.84610901 -1.0975223 2.99324263 0 0 Z " fill="#FDC9BF" transform="translate(341,447)"/>
<path d="M0 0 C1.65 0 3.3 0 5 0 C4.67 1.32 4.34 2.64 4 4 C2.68 4 1.36 4 0 4 C0 2.68 0 1.36 0 0 Z " fill="#FEEDE9" transform="translate(332,446)"/>
<path d="M0 0 C1.89213369 2.38573379 3.02391783 4.07175348 4 7 C3.01 7 2.02 7 1 7 C0.67 7.66 0.34 8.32 0 9 C0 6.03 0 3.06 0 0 Z " fill="#333333" transform="translate(222,1142)"/>
<path d="M0 0 C0.66 0.66 1.32 1.32 2 2 C0.02 3.98 -1.96 5.96 -4 8 C-4.99 7.67 -5.98 7.34 -7 7 C-6.21625 6.401875 -5.4325 5.80375 -4.625 5.1875 C-1.85425677 3.08914751 -1.85425677 3.08914751 0 0 Z " fill="#E3BE1E" transform="translate(771,343)"/>
<path d="M0 0 C0.66 0.66 1.32 1.32 2 2 C0.515 4.475 0.515 4.475 -1 7 C-1.66 6.67 -2.32 6.34 -3 6 C-2.42655063 3.13275314 -2.1385485 2.1385485 0 0 Z " fill="#FDBFB5" transform="translate(329,441)"/>
</svg>
